<mxfile host="65bd71144e">
    <diagram name="Page-1" id="R-vYNGDxhKF5BctZFVCK">
        <mxGraphModel dx="1239" dy="392" grid="1" gridSize="10" guides="1" tooltips="1" connect="1" arrows="1" fold="1" page="1" pageScale="1" pageWidth="850" pageHeight="1100" math="0" shadow="0">
            <root>
                <mxCell id="0"/>
                <mxCell id="1" parent="0"/>
                <mxCell id="vnXqLF_RoWk1uh71GDRZ-8" value="" style="rounded=0;whiteSpace=wrap;html=1;" parent="1" vertex="1">
                    <mxGeometry width="400" height="480" as="geometry"/>
                </mxCell>
                <mxCell id="vnXqLF_RoWk1uh71GDRZ-9" value="" style="rounded=0;whiteSpace=wrap;html=1;" parent="1" vertex="1">
                    <mxGeometry x="440" width="400" height="480" as="geometry"/>
                </mxCell>
                <mxCell id="vnXqLF_RoWk1uh71GDRZ-11" value="" style="rounded=0;whiteSpace=wrap;html=1;" parent="1" vertex="1">
                    <mxGeometry x="440" y="560" width="400" height="480" as="geometry"/>
                </mxCell>
                <mxCell id="vnXqLF_RoWk1uh71GDRZ-12" value="welcome to freeweights" style="rounded=0;whiteSpace=wrap;html=1;" parent="1" vertex="1">
                    <mxGeometry x="50" y="30" width="300" height="60" as="geometry"/>
                </mxCell>
                <mxCell id="vnXqLF_RoWk1uh71GDRZ-15" value="welcome user" style="rounded=0;whiteSpace=wrap;html=1;" parent="1" vertex="1">
                    <mxGeometry x="500" y="40" width="300" height="60" as="geometry"/>
                </mxCell>
                <mxCell id="vnXqLF_RoWk1uh71GDRZ-16" value="login" style="rounded=1;whiteSpace=wrap;html=1;" parent="1" vertex="1">
                    <mxGeometry x="140" y="160" width="120" height="60" as="geometry"/>
                </mxCell>
                <mxCell id="vnXqLF_RoWk1uh71GDRZ-17" value="create account" style="rounded=1;whiteSpace=wrap;html=1;" parent="1" vertex="1">
                    <mxGeometry x="140" y="250" width="120" height="60" as="geometry"/>
                </mxCell>
                <mxCell id="vnXqLF_RoWk1uh71GDRZ-18" value="new workout&amp;nbsp;" style="rounded=1;whiteSpace=wrap;html=1;" parent="1" vertex="1">
                    <mxGeometry x="580" y="140" width="120" height="60" as="geometry"/>
                </mxCell>
                <mxCell id="vnXqLF_RoWk1uh71GDRZ-19" value="log out" style="rounded=1;whiteSpace=wrap;html=1;" parent="1" vertex="1">
                    <mxGeometry x="580" y="400" width="120" height="60" as="geometry"/>
                </mxCell>
                <mxCell id="vnXqLF_RoWk1uh71GDRZ-20" value="past workouts" style="rounded=1;whiteSpace=wrap;html=1;" parent="1" vertex="1">
                    <mxGeometry x="580" y="230" width="120" height="60" as="geometry"/>
                </mxCell>
                <mxCell id="vnXqLF_RoWk1uh71GDRZ-22" value="" style="endArrow=classic;html=1;rounded=0;" parent="1" target="vnXqLF_RoWk1uh71GDRZ-9" edge="1">
                    <mxGeometry width="50" height="50" relative="1" as="geometry">
                        <mxPoint x="240" y="190" as="sourcePoint"/>
                        <mxPoint x="290" y="140" as="targetPoint"/>
                    </mxGeometry>
                </mxCell>
                <mxCell id="vnXqLF_RoWk1uh71GDRZ-25" value="" style="endArrow=none;html=1;rounded=0;" parent="1" target="vnXqLF_RoWk1uh71GDRZ-10" edge="1">
                    <mxGeometry width="50" height="50" relative="1" as="geometry">
                        <mxPoint x="80" y="690" as="sourcePoint"/>
                        <mxPoint x="-90" y="700" as="targetPoint"/>
                    </mxGeometry>
                </mxCell>
                <mxCell id="vnXqLF_RoWk1uh71GDRZ-10" value="" style="rounded=0;whiteSpace=wrap;html=1;" parent="1" vertex="1">
                    <mxGeometry y="560" width="400" height="480" as="geometry"/>
                </mxCell>
                <mxCell id="vnXqLF_RoWk1uh71GDRZ-31" value="workout name" style="rounded=1;whiteSpace=wrap;html=1;" parent="1" vertex="1">
                    <mxGeometry x="105" y="580" width="190" height="20" as="geometry"/>
                </mxCell>
                <mxCell id="vnXqLF_RoWk1uh71GDRZ-32" value="body group" style="rounded=1;whiteSpace=wrap;html=1;" parent="1" vertex="1">
                    <mxGeometry x="140" y="610" width="120" height="20" as="geometry"/>
                </mxCell>
                <mxCell id="vnXqLF_RoWk1uh71GDRZ-33" value="exercise 1" style="rounded=1;whiteSpace=wrap;html=1;" parent="1" vertex="1">
                    <mxGeometry x="50" y="650" width="110" height="40" as="geometry"/>
                </mxCell>
                <mxCell id="vnXqLF_RoWk1uh71GDRZ-35" value="weight" style="rounded=1;whiteSpace=wrap;html=1;" parent="1" vertex="1">
                    <mxGeometry x="200" y="640" width="110" height="20" as="geometry"/>
                </mxCell>
                <mxCell id="vnXqLF_RoWk1uh71GDRZ-36" value="set" style="rounded=1;whiteSpace=wrap;html=1;" parent="1" vertex="1">
                    <mxGeometry x="200" y="660" width="110" height="20" as="geometry"/>
                </mxCell>
                <mxCell id="vnXqLF_RoWk1uh71GDRZ-37" value="reps" style="rounded=1;whiteSpace=wrap;html=1;" parent="1" vertex="1">
                    <mxGeometry x="200" y="680" width="110" height="20" as="geometry"/>
                </mxCell>
                <mxCell id="vnXqLF_RoWk1uh71GDRZ-38" value="exercise" style="rounded=1;whiteSpace=wrap;html=1;" parent="1" vertex="1">
                    <mxGeometry x="50" y="740" width="110" height="40" as="geometry"/>
                </mxCell>
                <mxCell id="vnXqLF_RoWk1uh71GDRZ-39" value="weight" style="rounded=1;whiteSpace=wrap;html=1;" parent="1" vertex="1">
                    <mxGeometry x="200" y="730" width="110" height="20" as="geometry"/>
                </mxCell>
                <mxCell id="vnXqLF_RoWk1uh71GDRZ-41" value="reps" style="rounded=1;whiteSpace=wrap;html=1;" parent="1" vertex="1">
                    <mxGeometry x="200" y="770" width="110" height="20" as="geometry"/>
                </mxCell>
                <mxCell id="vnXqLF_RoWk1uh71GDRZ-42" value="set" style="rounded=1;whiteSpace=wrap;html=1;" parent="1" vertex="1">
                    <mxGeometry x="200" y="750" width="110" height="20" as="geometry"/>
                </mxCell>
                <mxCell id="vnXqLF_RoWk1uh71GDRZ-43" value="exercise" style="rounded=1;whiteSpace=wrap;html=1;" parent="1" vertex="1">
                    <mxGeometry x="50" y="830" width="110" height="40" as="geometry"/>
                </mxCell>
                <mxCell id="vnXqLF_RoWk1uh71GDRZ-44" value="weight" style="rounded=1;whiteSpace=wrap;html=1;" parent="1" vertex="1">
                    <mxGeometry x="200" y="820" width="110" height="20" as="geometry"/>
                </mxCell>
                <mxCell id="vnXqLF_RoWk1uh71GDRZ-45" value="reps" style="rounded=1;whiteSpace=wrap;html=1;" parent="1" vertex="1">
                    <mxGeometry x="200" y="860" width="110" height="20" as="geometry"/>
                </mxCell>
                <mxCell id="vnXqLF_RoWk1uh71GDRZ-46" value="set" style="rounded=1;whiteSpace=wrap;html=1;" parent="1" vertex="1">
                    <mxGeometry x="200" y="840" width="110" height="20" as="geometry"/>
                </mxCell>
                <mxCell id="vnXqLF_RoWk1uh71GDRZ-47" value="exercise" style="rounded=1;whiteSpace=wrap;html=1;" parent="1" vertex="1">
                    <mxGeometry x="50" y="920" width="110" height="40" as="geometry"/>
                </mxCell>
                <mxCell id="vnXqLF_RoWk1uh71GDRZ-48" value="weight" style="rounded=1;whiteSpace=wrap;html=1;" parent="1" vertex="1">
                    <mxGeometry x="200" y="910" width="110" height="20" as="geometry"/>
                </mxCell>
                <mxCell id="vnXqLF_RoWk1uh71GDRZ-49" value="reps" style="rounded=1;whiteSpace=wrap;html=1;" parent="1" vertex="1">
                    <mxGeometry x="200" y="950" width="110" height="20" as="geometry"/>
                </mxCell>
                <mxCell id="vnXqLF_RoWk1uh71GDRZ-50" value="set" style="rounded=1;whiteSpace=wrap;html=1;" parent="1" vertex="1">
                    <mxGeometry x="200" y="930" width="110" height="20" as="geometry"/>
                </mxCell>
                <mxCell id="vnXqLF_RoWk1uh71GDRZ-51" value="" style="endArrow=classic;html=1;rounded=0;exitX=0;exitY=0.5;exitDx=0;exitDy=0;" parent="1" source="vnXqLF_RoWk1uh71GDRZ-18" edge="1">
                    <mxGeometry width="50" height="50" relative="1" as="geometry">
                        <mxPoint x="400" y="400" as="sourcePoint"/>
                        <mxPoint x="390" y="550" as="targetPoint"/>
                    </mxGeometry>
                </mxCell>
                <mxCell id="vnXqLF_RoWk1uh71GDRZ-52" value="" style="endArrow=classic;html=1;rounded=0;" parent="1" source="vnXqLF_RoWk1uh71GDRZ-19" edge="1">
                    <mxGeometry width="50" height="50" relative="1" as="geometry">
                        <mxPoint x="400" y="400" as="sourcePoint"/>
                        <mxPoint x="410" y="370" as="targetPoint"/>
                    </mxGeometry>
                </mxCell>
                <mxCell id="vnXqLF_RoWk1uh71GDRZ-53" value="finsihed" style="rounded=1;whiteSpace=wrap;html=1;" parent="1" vertex="1">
                    <mxGeometry x="135" y="1000" width="130" height="20" as="geometry"/>
                </mxCell>
                <mxCell id="vnXqLF_RoWk1uh71GDRZ-54" value="" style="endArrow=classic;html=1;rounded=0;" parent="1" source="vnXqLF_RoWk1uh71GDRZ-53" edge="1">
                    <mxGeometry width="50" height="50" relative="1" as="geometry">
                        <mxPoint x="400" y="770" as="sourcePoint"/>
                        <mxPoint x="480" y="490" as="targetPoint"/>
                    </mxGeometry>
                </mxCell>
                <mxCell id="vnXqLF_RoWk1uh71GDRZ-55" value="history" style="rounded=1;whiteSpace=wrap;html=1;" parent="1" vertex="1">
                    <mxGeometry x="560" y="580" width="140" height="30" as="geometry"/>
                </mxCell>
                <mxCell id="vnXqLF_RoWk1uh71GDRZ-56" value="select workout" style="rounded=1;whiteSpace=wrap;html=1;" parent="1" vertex="1">
                    <mxGeometry x="570" y="620" width="120" height="60" as="geometry"/>
                </mxCell>
                <mxCell id="vnXqLF_RoWk1uh71GDRZ-58" value="exercise&lt;br&gt;weight&lt;br&gt;set reps&lt;br&gt;&lt;br&gt;exercise&lt;br&gt;weight&amp;nbsp;&lt;br&gt;set reps&lt;br&gt;&lt;br&gt;exercise&lt;br&gt;weight&lt;br&gt;set reps&lt;br&gt;&lt;br&gt;exercise&lt;br&gt;weight&lt;br&gt;set reps" style="rounded=0;whiteSpace=wrap;html=1;" parent="1" vertex="1">
                    <mxGeometry x="550" y="690" width="160" height="290" as="geometry"/>
                </mxCell>
                <mxCell id="vnXqLF_RoWk1uh71GDRZ-59" value="home" style="rounded=1;whiteSpace=wrap;html=1;" parent="1" vertex="1">
                    <mxGeometry x="590" y="990" width="100" height="30" as="geometry"/>
                </mxCell>
                <mxCell id="vnXqLF_RoWk1uh71GDRZ-60" value="" style="endArrow=classic;html=1;rounded=0;exitX=1;exitY=0;exitDx=0;exitDy=0;" parent="1" source="vnXqLF_RoWk1uh71GDRZ-59" edge="1">
                    <mxGeometry width="50" height="50" relative="1" as="geometry">
                        <mxPoint x="400" y="950" as="sourcePoint"/>
                        <mxPoint x="740" y="490" as="targetPoint"/>
                    </mxGeometry>
                </mxCell>
                <mxCell id="vnXqLF_RoWk1uh71GDRZ-61" value="" style="endArrow=classic;html=1;rounded=0;exitX=0;exitY=1;exitDx=0;exitDy=0;" parent="1" source="vnXqLF_RoWk1uh71GDRZ-20" edge="1">
                    <mxGeometry width="50" height="50" relative="1" as="geometry">
                        <mxPoint x="400" y="630" as="sourcePoint"/>
                        <mxPoint x="550" y="540" as="targetPoint"/>
                    </mxGeometry>
                </mxCell>
                <mxCell id="vnXqLF_RoWk1uh71GDRZ-62" value="" style="rounded=0;whiteSpace=wrap;html=1;" parent="1" vertex="1">
                    <mxGeometry x="-460" width="400" height="480" as="geometry"/>
                </mxCell>
                <mxCell id="vnXqLF_RoWk1uh71GDRZ-63" value="create account" style="rounded=0;whiteSpace=wrap;html=1;" parent="1" vertex="1">
                    <mxGeometry x="-370" y="30" width="250" height="60" as="geometry"/>
                </mxCell>
                <mxCell id="vnXqLF_RoWk1uh71GDRZ-64" value="user name" style="rounded=0;whiteSpace=wrap;html=1;" parent="1" vertex="1">
                    <mxGeometry x="-320" y="110" width="160" height="30" as="geometry"/>
                </mxCell>
                <mxCell id="vnXqLF_RoWk1uh71GDRZ-65" value="password" style="rounded=0;whiteSpace=wrap;html=1;" parent="1" vertex="1">
                    <mxGeometry x="-300" y="160" width="120" height="60" as="geometry"/>
                </mxCell>
                <mxCell id="vnXqLF_RoWk1uh71GDRZ-66" value="create" style="rounded=1;whiteSpace=wrap;html=1;" parent="1" vertex="1">
                    <mxGeometry x="-302.5" y="260" width="125" height="30" as="geometry"/>
                </mxCell>
                <mxCell id="vnXqLF_RoWk1uh71GDRZ-67" value="" style="endArrow=classic;html=1;rounded=0;exitX=0;exitY=0.5;exitDx=0;exitDy=0;" parent="1" source="vnXqLF_RoWk1uh71GDRZ-17" edge="1">
                    <mxGeometry width="50" height="50" relative="1" as="geometry">
                        <mxPoint x="400" y="460" as="sourcePoint"/>
                        <mxPoint x="-40" y="270" as="targetPoint"/>
                    </mxGeometry>
                </mxCell>
                <mxCell id="vnXqLF_RoWk1uh71GDRZ-68" value="" style="endArrow=classic;html=1;rounded=0;exitX=1;exitY=0.5;exitDx=0;exitDy=0;" parent="1" source="vnXqLF_RoWk1uh71GDRZ-66" edge="1">
                    <mxGeometry width="50" height="50" relative="1" as="geometry">
                        <mxPoint x="400" y="460" as="sourcePoint"/>
                        <mxPoint x="420" y="400" as="targetPoint"/>
                    </mxGeometry>
                </mxCell>
            </root>
        </mxGraphModel>
    </diagram>
</mxfile>